<svg viewBox="0 0 400 250" xmlns="http://www.w3.org/2000/svg">
  <rect width="400" height="250" fill="#1a1a1a"/>
  <rect x="15" y="100" width="90" height="36" rx="6" fill="none" stroke="#00ff88" stroke-width="2"/>
  <text x="60" y="117" text-anchor="middle" fill="#fff" font-size="10" font-family="Poppins,sans-serif">QR Scanner</text>
  <text x="60" y="129" text-anchor="middle" fill="#00ff88" font-size="9" font-family="Poppins,sans-serif">/ Mobile App</text>
  <line x1="105" y1="118" x2="130" y2="118" stroke="#00ff88" stroke-width="2"/>
  <polygon points="130,113 140,118 130,123" fill="#00ff88"/>
  <rect x="140" y="55" width="120" height="36" rx="6" fill="none" stroke="#00ff88" stroke-width="2"/>
  <text x="200" y="78" text-anchor="middle" fill="#fff" font-size="11" font-family="Poppins,sans-serif">Spring Boot</text>
  <rect x="140" y="100" width="120" height="36" rx="6" fill="none" stroke="#00ff88" stroke-width="2"/>
  <text x="200" y="116" text-anchor="middle" fill="#fff" font-size="9" font-family="Poppins,sans-serif">JWT + HMAC</text>
  <text x="200" y="128" text-anchor="middle" fill="#00ff88" font-size="9" font-family="Poppins,sans-serif">Sessions</text>
  <line x1="200" y1="91" x2="200" y2="100" stroke="#555" stroke-width="1.5" stroke-dasharray="4"/>
  <line x1="260" y1="73" x2="285" y2="73" stroke="#00ff88" stroke-width="2"/>
  <polygon points="285,68 295,73 285,78" fill="#00ff88"/>
  <rect x="295" y="55" width="90" height="36" rx="6" fill="none" stroke="#00ff88" stroke-width="2"/>
  <text x="340" y="78" text-anchor="middle" fill="#fff" font-size="10" font-family="Poppins,sans-serif">Redis Sessions</text>
  <line x1="200" y1="136" x2="200" y2="170" stroke="#00ff88" stroke-width="2"/>
  <polygon points="195,170 200,180 205,170" fill="#00ff88"/>
  <rect x="145" y="180" width="110" height="36" rx="6" fill="none" stroke="#00ff88" stroke-width="2"/>
  <text x="200" y="203" text-anchor="middle" fill="#fff" font-size="11" font-family="Poppins,sans-serif">MySQL</text>
  <text x="200" y="240" text-anchor="middle" fill="#666" font-size="11" font-family="Poppins,sans-serif">Attendance Management API</text>
</svg>
