<svg viewBox="0 0 400 250" xmlns="http://www.w3.org/2000/svg">
  <rect width="400" height="250" fill="#1a1a1a"/>
  <rect x="15" y="100" width="80" height="36" rx="6" fill="none" stroke="#00ff88" stroke-width="2"/>
  <text x="55" y="123" text-anchor="middle" fill="#fff" font-size="10" font-family="Poppins,sans-serif">Flutter App</text>
  <line x1="95" y1="118" x2="125" y2="118" stroke="#00ff88" stroke-width="2"/>
  <polygon points="125,113 135,118 125,123" fill="#00ff88"/>
  <rect x="135" y="60" width="110" height="36" rx="6" fill="none" stroke="#00ff88" stroke-width="2"/>
  <text x="190" y="83" text-anchor="middle" fill="#fff" font-size="11" font-family="Poppins,sans-serif">Spring Boot</text>
  <rect x="135" y="105" width="110" height="36" rx="6" fill="none" stroke="#00ff88" stroke-width="2"/>
  <text x="190" y="128" text-anchor="middle" fill="#fff" font-size="11" font-family="Poppins,sans-serif">JWT Authentication</text>
  <line x1="190" y1="96" x2="190" y2="105" stroke="#555" stroke-width="1.5" stroke-dasharray="4"/>
  <line x1="245" y1="78" x2="280" y2="78" stroke="#00ff88" stroke-width="2"/>
  <polygon points="280,73 290,78 280,83" fill="#00ff88"/>
  <rect x="290" y="60" width="95" height="36" rx="6" fill="none" stroke="#00ff88" stroke-width="2"/>
  <text x="337" y="78" text-anchor="middle" fill="#fff" font-size="9" font-family="Poppins,sans-serif">HuggingFace</text>
  <text x="337" y="90" text-anchor="middle" fill="#00ff88" font-size="8" font-family="Poppins,sans-serif">AI API</text>
  <line x1="190" y1="141" x2="190" y2="170" stroke="#00ff88" stroke-width="2"/>
  <polygon points="185,170 190,180 195,170" fill="#00ff88"/>
  <rect x="135" y="180" width="110" height="36" rx="6" fill="none" stroke="#00ff88" stroke-width="2"/>
  <text x="190" y="203" text-anchor="middle" fill="#fff" font-size="11" font-family="Poppins,sans-serif">MySQL Database</text>
  <text x="200" y="240" text-anchor="middle" fill="#666" font-size="11" font-family="Poppins,sans-serif">CalCounter — AI-Powered Nutrition Tracking</text>
</svg>
